<?xml version="1.0" encoding="UTF-8" standalone="no"?>
<svg width="76px" height="75px" viewBox="0 0 76 75" version="1.1" xmlns="http://www.w3.org/2000/svg" xmlns:xlink="http://www.w3.org/1999/xlink">
    <!-- Generator: Sketch 47.1 (45422) - http://www.bohemiancoding.com/sketch -->
    <title>weather-icon-01d</title>
    <desc>Created with Sketch.</desc>
    <defs></defs>
    <g id="Page-1" stroke="none" stroke-width="1" fill="none" fill-rule="evenodd">
        <g id="weather-icon-01d" transform="translate(-12.000000, -12.000000)">
            <g>
                <g>
                    <rect id="Rectangle" x="0" y="0" width="100" height="100"></rect>
                    <path d="M74.9506383,74.8615 L64.0325106,64.7978333 C63.3549787,64.174 63.3210213,63.1179167 63.9597447,62.4529167 C64.5984681,61.7895 65.6770213,61.7578333 66.3561702,62.38325 L77.2742979,72.4453333 C77.9518298,73.07075 77.9841702,74.12525 77.3454468,74.79025 C76.7083404,75.45525 75.6297872,75.4869167 74.9506383,74.8615" id="Fill-1" fill="#4A4A4A"></path>
                    <path d="M33.2379574,36.6651667 L22.3198298,26.6030833 C21.6406809,25.9776667 21.6083404,24.9231667 22.2470638,24.2581667 C22.8857872,23.5931667 23.9627234,23.5615 24.6418723,24.1869167 L35.56,34.2505833 C36.2391489,34.876 36.2714894,35.9305 35.632766,36.5955 C34.9940426,37.2589167 33.9154894,37.2905833 33.2379574,36.6651667" id="Fill-2" fill="#4A4A4A"></path>
                    <path d="M24.5108936,74.7364167 L34.5315745,63.8145833 C35.1541277,63.1369167 36.2310638,63.0799167 36.924766,63.6895 C37.6184681,64.2990833 37.6750638,65.3535833 37.0525106,66.0328333 L27.0318298,76.9546667 C26.4092766,77.6323333 25.3323404,77.6893333 24.6402553,77.07975 C23.9465532,76.4701667 23.8883404,75.4156667 24.5108936,74.7364167" id="Fill-3" fill="#4A4A4A"></path>
                    <path d="M62.54,33.0155833 L72.5606809,22.09375 C73.183234,21.4160833 74.2601702,21.3590833 74.9538723,21.9686667 C75.6459574,22.57825 75.7041702,23.63275 75.081617,24.312 L65.0609362,35.2338333 C64.438383,35.9115 63.3614468,35.9685 62.6677447,35.3589167 C61.9756596,34.7493333 61.9174468,33.6948333 62.54,33.0155833" id="Fill-4" fill="#4A4A4A"></path>
                    <path d="M48.8276596,84.9568333 L48.6562553,70.2761667 C48.6465532,69.3641667 49.4000851,68.6089167 50.3314894,68.5994167 C51.2628936,68.5883333 52.0342128,69.3261667 52.0455319,70.2381667 L52.2169362,84.9188333 C52.2266383,85.8324167 51.4731064,86.5860833 50.5417021,86.5971667 C49.6102979,86.60825 48.8389787,85.8704167 48.8276596,84.9568333" id="Fill-5" fill="#4A4A4A"></path>
                    <path d="M47.9900426,29.043 L47.8186383,14.3623333 C47.8073191,13.44875 48.5608511,12.6950833 49.4922553,12.684 C50.4236596,12.6729167 51.1949787,13.41075 51.2062979,14.3243333 L51.3777021,29.005 C51.3890213,29.917 50.6338723,30.67225 49.7024681,30.68175 C48.7710638,30.6928333 47.9997447,29.955 47.9900426,29.043" id="Fill-6" fill="#4A4A4A"></path>
                    <path d="M13.9695319,47.9590833 L28.9641702,48.0065833 C29.8955745,48.00975 30.6555745,48.7586667 30.6523404,49.6706667 C30.6507234,50.5826667 29.8858723,51.3268333 28.9528511,51.3236667 L13.9598298,51.27775 C13.0268085,51.2745833 12.2668085,50.5256667 12.2700426,49.6136667 C12.2732766,48.7000833 13.0381277,47.9559167 13.9695319,47.9590833" id="Fill-7" fill="#4A4A4A"></path>
                    <path d="M71.0811064,47.9575 L86.0757447,48.0034167 C87.0071489,48.0065833 87.7671489,48.7555 87.7639149,49.6675 C87.7606809,50.5810833 86.9958298,51.32525 86.0644255,51.3220833 L71.0697872,51.2745833 C70.138383,51.2714167 69.378383,50.5225 69.381617,49.6105 C69.3848511,48.6985 70.1497021,47.9543333 71.0811064,47.9575" id="Fill-8" fill="#4A4A4A"></path>
                    <path d="M49.5973617,34.2585 C40.9365957,34.2585 33.889617,41.1586667 33.889617,49.639 C33.889617,58.1209167 40.9365957,65.0210833 49.5973617,65.0210833 C58.2597447,65.0210833 65.3067234,58.1209167 65.3067234,49.639 C65.3067234,41.1586667 58.2597447,34.2585 49.5973617,34.2585 L49.5973617,34.2585 Z M62.0969362,49.639 C62.0969362,56.3871667 56.4891064,61.8781667 49.5973617,61.8781667 C42.705617,61.8781667 37.0994043,56.3871667 37.0994043,49.639 C37.0994043,42.8908333 42.705617,37.3998333 49.5973617,37.3998333 C56.4891064,37.3998333 62.0969362,42.8908333 62.0969362,49.639 L62.0969362,49.639 Z" id="Fill-9" fill="#4A4A4A"></path>
                </g>
            </g>
        </g>
    </g>
</svg>