<?xml version="1.0" encoding="UTF-8" standalone="no"?>
<svg width="100px" height="100px" viewBox="0 0 100 100" version="1.1" xmlns="http://www.w3.org/2000/svg" xmlns:xlink="http://www.w3.org/1999/xlink">
    <!-- Generator: Sketch 47.1 (45422) - http://www.bohemiancoding.com/sketch -->
    <title>weather-icon-10n</title>
    <desc>Created with Sketch.</desc>
    <defs></defs>
    <g id="Page-1" stroke="none" stroke-width="1" fill="none" fill-rule="evenodd">
        <g id="weather-icon-10n">
            <g>
                <g>
                    <rect id="Rectangle" x="0" y="0" width="100" height="100"></rect>
                    <path d="M72.3446154,27.6969388 C71.16,27.6969388 69.9784615,27.822449 68.8215385,28.0734694 C65.1276923,19.4821429 56.5076923,13.7515306 47.18,13.7515306 C35.5415385,13.7515306 25.8615385,21.9846939 23.9353846,33.4214286 C23.9076923,33.419898 23.88,33.419898 23.8538462,33.419898 C16.2430769,33.419898 10.0507692,39.6403061 10.0507692,47.2841837 C10.0507692,54.9265306 16.2430769,61.1438776 23.8538462,61.1438776 L72.3446154,61.1438776 C81.5230769,61.1438776 88.9923077,53.6408163 88.9923077,44.4204082 C88.9923077,35.1984694 81.5230769,27.6969388 72.3446154,27.6969388 L72.3446154,27.6969388 Z M85.6430769,44.4204082 C85.6430769,51.794898 79.6784615,57.7933673 72.3446154,57.7933673 L23.8538462,57.7933673 C18.0892308,57.7933673 13.3984615,53.0790816 13.3984615,47.2841837 C13.3984615,41.4862245 18.0892308,36.7704082 23.8538462,36.7704082 C24.2384615,36.7704082 24.6584615,36.8010204 25.1769231,36.8637755 L26.8769231,37.0765306 L27.0492308,35.369898 C28.0984615,24.9556122 36.7538462,17.1020408 47.18,17.1020408 C55.7107692,17.1020408 63.3661538,22.5418367 66.2307692,30.6372449 L66.7723077,32.1647959 L68.3153846,31.6734694 C69.6246154,31.2571429 70.98,31.047449 72.3446154,31.047449 C79.6784615,31.047449 85.6430769,37.0459184 85.6430769,44.4204082 L85.6430769,44.4204082 Z" id="Fill-1" fill="#4A4A4A"></path>
                    <path d="M24.0876923,70.3673469 C25.4969231,72.9280612 26.9076923,75.4887755 28.3169231,78.0494898 C29.2984615,79.8311224 32.04,78.2408163 31.0569231,76.4561224 C29.6461538,73.8954082 28.2369231,71.3346939 26.8261538,68.7739796 C25.8446154,66.9923469 23.1046154,68.5841837 24.0876923,70.3673469" id="Fill-2" fill="#4A4A4A"></path>
                    <path d="M39.8030769,70.3673469 C41.2138462,72.9280612 42.6246154,75.4887755 44.0338462,78.0494898 C45.0153846,79.8311224 47.7569231,78.2408163 46.7738462,76.4561224 C45.3630769,73.8954082 43.9538462,71.3346939 42.5430769,68.7739796 C41.5615385,66.9923469 38.8215385,68.5841837 39.8030769,70.3673469" id="Fill-3" fill="#4A4A4A"></path>
                    <path d="M56.3230769,70.3673469 C57.7338462,72.9280612 59.1430769,75.4887755 60.5538462,78.0494898 C61.5353846,79.8311224 64.2753846,78.2408163 63.2938462,76.4561224 C61.8830769,73.8954082 60.4723077,71.3346939 59.0630769,68.7739796 C58.0815385,66.9923469 55.34,68.5841837 56.3230769,70.3673469" id="Fill-4" fill="#4A4A4A"></path>
                    <path d="M72.2876923,70.3673469 C73.6984615,72.9280612 75.1076923,75.4887755 76.5184615,78.0494898 C77.5,79.8311224 80.24,78.2408163 79.2584615,76.4561224 C77.8476923,73.8954082 76.4369231,71.3346939 75.0276923,68.7739796 C74.0461538,66.9923469 71.3046154,68.5841837 72.2876923,70.3673469" id="Fill-5" fill="#4A4A4A"></path>
                    <path d="M37.0030769,79.4408163 C38.4123077,82.0015306 39.8230769,84.5622449 41.2323077,87.1229592 C42.2138462,88.9045918 44.9553846,87.3142857 43.9723077,85.5295918 C42.5630769,82.9688776 41.1523077,80.4081633 39.7415385,77.847449 C38.7615385,76.0658163 36.02,77.6561224 37.0030769,79.4408163" id="Fill-6" fill="#4A4A4A"></path>
                    <path d="M52.7169231,79.4362245 C54.1276923,81.9969388 55.5369231,84.5576531 56.9476923,87.1183673 C57.9292308,88.9015306 60.6692308,87.3096939 59.6876923,85.525 C58.2769231,82.9642857 56.8661538,80.4035714 55.4569231,77.8428571 C54.4753846,76.0612245 51.7338462,77.6530612 52.7169231,79.4362245" id="Fill-7" fill="#4A4A4A"></path>
                    <path d="M68.7476923,78.802551 C70.1569231,81.3632653 71.5676923,83.9239796 72.9769231,86.4846939 C73.9584615,88.2663265 76.7,86.6760204 75.7169231,84.8913265 C74.3061538,82.3306122 72.8969231,79.769898 71.4861538,77.2091837 C70.5046154,75.427551 67.7646154,77.0178571 68.7476923,78.802551" id="Fill-8" fill="#4A4A4A"></path>
                </g>
            </g>
        </g>
    </g>
</svg>