<?xml version="1.0" encoding="UTF-8" standalone="no"?>
<svg width="94px" height="47px" viewBox="0 0 94 47" version="1.1" xmlns="http://www.w3.org/2000/svg" xmlns:xlink="http://www.w3.org/1999/xlink">
    <!-- Generator: Sketch 47.1 (45422) - http://www.bohemiancoding.com/sketch -->
    <title>weather-icon-04d</title>
    <desc>Created with Sketch.</desc>
    <defs></defs>
    <g id="Page-1" stroke="none" stroke-width="1" fill="none" fill-rule="evenodd">
        <g id="weather-icon-04d" transform="translate(-3.000000, -27.000000)">
            <g>
                <g>
                    <rect id="Rectangle" x="0" y="0" width="100" height="100"></rect>
                    <path d="M20.0723369,60.4549363 L13.4055433,60.4549363 C9.05950659,60.4549363 5.52417574,56.8739871 5.52417574,52.4714735 C5.52417574,48.0674715 9.05950659,44.4850339 13.4055433,44.4850339 C13.6950811,44.4850339 14.0128303,44.5088474 14.4033351,44.5564743 L15.6862103,44.7172151 L15.8139039,43.4223582 C16.6067921,35.5103357 23.1310439,29.5450637 30.993109,29.5450637 C34.4066854,29.5450637 37.6287215,30.719365 40.2301074,32.7316024 C40.7913653,32.0916157 41.3793497,31.4858608 42,30.9217794 C38.9115967,28.4511328 35.0436686,27 30.993109,27 C22.2164014,27 14.9200487,33.2540103 13.4679053,41.9414586 L13.4055433,41.9414586 C7.66824031,41.9414586 3,46.6654539 3,52.4714735 C3,58.2760046 7.66824031,63 13.4055433,63 L20.1317292,63 C20.0723369,62.4731272 20.0307622,61.9388126 20.0307622,61.3940797 C20.0307622,61.077063 20.0515495,60.7659997 20.0723369,60.4549363" id="Fill-1" fill="#4A4A4A"></path>
                    <path d="M81.3936861,42.2409698 C80.2830527,42.2409698 79.1753653,42.3612073 78.0927187,42.6001979 C74.6297225,34.4418605 66.5489072,29 57.805247,29 C46.8948207,29 37.821211,36.8184067 36.015327,47.6768926 L35.9387316,47.6768926 C28.803575,47.6768926 23,53.5818902 23,60.8391885 C23,68.0964869 28.803575,74 35.9387316,74 L81.3936861,74 C89.9988853,74 97,66.8762989 97,58.1212271 C97,49.364671 89.9988853,42.2409698 81.3936861,42.2409698 L81.3936861,42.2409698 Z M93.8610613,58.1212271 C93.8610613,65.1232063 88.2681237,70.8189015 81.3936861,70.8189015 L35.9387316,70.8189015 C30.5343366,70.8189015 26.1374657,66.3433944 26.1374657,60.8391885 C26.1374657,55.3349827 30.5343366,50.8579911 35.9387316,50.8579911 C36.2981408,50.8579911 36.6929018,50.886195 37.178988,50.9470559 L38.7727617,51.1474518 L38.9333174,49.5279565 C39.9187468,39.6387927 48.0319678,32.1810985 57.805247,32.1810985 C65.800629,32.1810985 72.9770293,37.346858 75.6637605,45.0331519 L76.1704686,46.4849085 L77.6169433,46.0173182 C78.8454158,45.6224641 80.115132,45.4235527 81.3936861,45.4235527 C88.2681237,45.4235527 93.8610613,51.1192479 93.8610613,58.1212271 L93.8610613,58.1212271 Z" id="Fill-2" fill="#4A4A4A"></path>
                </g>
            </g>
        </g>
    </g>
</svg>