<?xml version="1.0" encoding="UTF-8" standalone="no"?>
<svg width="93px" height="83px" viewBox="0 0 93 83" version="1.1" xmlns="http://www.w3.org/2000/svg" xmlns:xlink="http://www.w3.org/1999/xlink">
    <!-- Generator: Sketch 47.1 (45422) - http://www.bohemiancoding.com/sketch -->
    <title>weather-icon-11n</title>
    <desc>Created with Sketch.</desc>
    <defs></defs>
    <g id="Page-1" stroke="none" stroke-width="1" fill="none" fill-rule="evenodd">
        <g id="weather-icon-11n" transform="translate(-4.000000, -9.000000)">
            <g>
                <g>
                    <rect id="Rectangle" x="0" y="0" width="100" height="100"></rect>
                    <path d="M20.7888286,42.0435246 L14.3364,42.0435246 C10.1305714,42.0435246 6.70762857,38.5398361 6.70762857,34.2333607 C6.70762857,29.9255246 10.1305714,26.4218361 14.3364,26.4218361 C14.6170571,26.4218361 14.9232286,26.4436066 15.3019143,26.4912295 L16.5427143,26.6490656 L16.6676,25.3809344 C17.4343714,17.6415246 23.7484857,11.8056721 31.3571143,11.8056721 C34.6605429,11.8056721 37.7786571,12.9540656 40.2951714,14.9229344 C40.8390286,14.2970328 41.4084,13.7037869 42.01,13.1527213 C39.0208,10.7348361 35.2769143,9.31567213 31.3571143,9.31567213 C22.8635429,9.31567213 15.8014571,15.434541 14.3954857,23.9318361 L14.3364,23.9318361 C8.78368571,23.9318361 4.26497143,28.5539836 4.26497143,34.2333607 C4.26497143,39.9127377 8.78368571,44.5335246 14.3364,44.5335246 L20.8452286,44.5335246 C20.7874857,44.0178361 20.7485429,43.4967049 20.7485429,42.9633279 C20.7485429,42.6530984 20.7686857,42.3483115 20.7888286,42.0435246" id="Fill-1" fill="#4A4A4A"></path>
                    <path d="M80.9931429,23.9576885 C79.9108,23.9576885 78.8298,24.0760656 77.7729714,24.3100984 C74.3943429,16.308082 66.5117714,10.9702295 57.9819429,10.9702295 C47.3384571,10.9702295 38.4876857,18.6388852 36.7245143,29.2887377 L36.6506571,29.2887377 C29.6906286,29.2887377 24.0278,35.0810492 24.0278,42.2 C24.0278,49.3189508 29.6906286,55.108541 36.6506571,55.108541 L80.9931429,55.108541 C89.3873429,55.108541 96.2171143,48.1215738 96.2171143,39.5331148 C96.2171143,30.9446557 89.3873429,23.9576885 80.9931429,23.9576885 L80.9931429,23.9576885 Z M93.1554,39.5331148 C93.1554,46.4017049 87.7007143,51.9885574 80.9931429,51.9885574 L36.6506571,51.9885574 C31.3786,51.9885574 27.0895143,47.5977213 27.0895143,42.2 C27.0895143,36.800918 31.3786,32.4087213 36.6506571,32.4087213 C37.0024857,32.4087213 37.3865429,32.4372951 37.8592286,32.4958033 L39.4156,32.694459 L39.5713714,31.1052131 C40.5328571,21.4050984 48.4476571,14.0902131 57.9819429,14.0902131 C65.7826,14.0902131 72.7829143,19.1559344 75.4028286,26.6966885 L75.8983429,28.1199344 L77.3096857,27.6613934 C78.5075143,27.2749672 79.7469714,27.0790328 80.9931429,27.0790328 C87.7007143,27.0790328 93.1554,32.6658852 93.1554,39.5331148 L93.1554,39.5331148 Z" id="Fill-2" fill="#4A4A4A"></path>
                    <path d="M36.8641714,63.6997213 C38.1533143,66.0835902 39.4424571,68.4688197 40.7329429,70.8540492 C41.6299714,72.5140492 44.1357429,71.0322951 43.2373714,69.3695738 C41.9482286,66.9857049 40.6590857,64.6004754 39.3686,62.2152459 C38.4715714,60.5566066 35.9658,62.0383607 36.8641714,63.6997213" id="Fill-3" fill="#4A4A4A"></path>
                    <path d="M80.9421143,63.6997213 C82.2312571,66.0835902 83.5217429,68.4688197 84.8108857,70.8540492 C85.7079143,72.5140492 88.2150286,71.0322951 87.3166571,69.3695738 C86.0261714,66.9857049 84.7370286,64.6004754 83.4478857,62.2152459 C82.5495143,60.5566066 80.0437429,62.0383607 80.9421143,63.6997213" id="Fill-4" fill="#4A4A4A"></path>
                    <path d="M77.7044857,71.5547869 C78.9936286,73.9400164 80.2827714,76.3252459 81.5732571,78.7104754 C82.4702857,80.3691148 84.9760571,78.8873607 84.0776857,77.226 C82.7885429,74.8407705 81.4994,72.4569016 80.2089143,70.0716721 C79.3118857,68.4116721 76.8061143,69.8934262 77.7044857,71.5547869" id="Fill-5" fill="#4A4A4A"></path>
                    <path d="M14.9353143,54.1819344 C16.2258,56.5671639 17.5149429,58.9523934 18.8040857,61.337623 C19.7011143,62.9962623 22.2082286,61.5145082 21.3098571,59.8531475 C20.0207143,57.467918 18.7302286,55.0840492 17.4410857,52.6988197 C16.5440571,51.0388197 14.0369429,52.5205738 14.9353143,54.1819344" id="Fill-6" fill="#4A4A4A"></path>
                    <path d="M26.7470857,62.6329672 C28.0362286,65.0181967 29.3253714,67.4020656 30.6158571,69.7872951 C31.5128857,71.4472951 34.0186571,69.965541 33.1202857,68.3041803 C31.8311429,65.9189508 30.542,63.5337213 29.2515143,61.1484918 C28.3544857,59.4884918 25.8487143,60.9716066 26.7470857,62.6329672" id="Fill-7" fill="#4A4A4A"></path>
                    <path d="M23.3684571,72.1493934 C24.6576,74.534623 25.9467429,76.9198525 27.2372286,79.305082 C28.1342571,80.9637213 30.6413714,79.4819672 29.7416571,77.8206066 C28.4525143,75.435377 27.1633714,73.0501475 25.8742286,70.6662787 C24.9758571,69.0062787 22.4700857,70.4880328 23.3684571,72.1493934" id="Fill-8" fill="#4A4A4A"></path>
                    <path d="M36.8641714,73.7903443 C38.1533143,76.1742131 39.4424571,78.5594426 40.7329429,80.9446721 C41.6299714,82.6046721 44.1357429,81.122918 43.2373714,79.4601967 C41.9482286,77.0763279 40.6590857,74.6910984 39.3686,72.3058689 C38.4715714,70.6458689 35.9658,72.1289836 36.8641714,73.7903443" id="Fill-9" fill="#4A4A4A"></path>
                    <polyline id="Fill-10" fill="#4A4A4A" points="64.8560286 54.9629508 64.5471714 55.108541 64.9245143 55.108541 64.8560286 54.9629508"></polyline>
                    <polyline id="Fill-11" fill="#4A4A4A" points="50.8580857 54.8309672 50.4256857 55.108541 51.0326571 55.108541 50.8580857 54.8309672"></polyline>
                    <path d="M70.9727429,73.6950984 L66.2996,73.6950984 C65.6805429,73.6950984 65.1058,74.0066885 64.7620286,74.530541 C64.4196,75.0530328 64.3551429,75.7115902 64.5941714,76.2912295 L68.9812857,86.9233934 L51.1172571,67.728623 L55.5889714,67.728623 C56.2630857,67.728623 56.8848286,67.3558033 57.2084571,66.7571148 C57.5334286,66.1570656 57.5106,65.4277541 57.1480286,64.8494754 L52.7313714,57.8135246 L49.9798571,57.8135246 L54.7268571,65.3760492 L50.0228286,65.3760492 C49.2842571,65.3760492 48.6168571,65.8209836 48.3254571,66.5067541 C48.0327143,67.1938852 48.1710286,67.9898689 48.6772857,68.5341311 L69.0726,90.4488525 C69.4378571,90.842082 69.9199429,91.0448197 70.4114286,91.0448197 C70.7578857,91.0448197 71.1083714,90.9441311 71.4239429,90.7359508 C72.1853429,90.2352295 72.4740571,89.2922951 72.1235714,88.4418852 L67.0099714,76.0476721 L71.7166857,76.0476721 C72.3532,76.0476721 72.9373429,75.7211148 73.2784286,75.1768525 C73.6181714,74.6325902 73.6611429,73.9590656 73.3898857,73.3780656 L66.1774,57.8135246 L63.6138857,57.8135246 L70.9727429,73.6950984" id="Fill-12" fill="#4A4A4A"></path>
                </g>
            </g>
        </g>
    </g>
</svg>