<?xml version="1.0" encoding="UTF-8" standalone="no"?>
<svg width="93px" height="83px" viewBox="0 0 93 83" version="1.1" xmlns="http://www.w3.org/2000/svg" xmlns:xlink="http://www.w3.org/1999/xlink">
    <!-- Generator: Sketch 47.1 (45422) - http://www.bohemiancoding.com/sketch -->
    <title>weather-icon-11d</title>
    <desc>Created with Sketch.</desc>
    <defs></defs>
    <g id="Page-1" stroke="none" stroke-width="1" fill="none" fill-rule="evenodd">
        <g id="weather-icon-11d" transform="translate(-4.000000, -9.000000)" fill="#4A4A4A">
            <g transform="translate(4.000000, 9.000000)">
                <g>
                    <path d="M16.7888286,33.0435246 L10.3364,33.0435246 C6.13057143,33.0435246 2.70762857,29.5398361 2.70762857,25.2333607 C2.70762857,20.9255246 6.13057143,17.4218361 10.3364,17.4218361 C10.6170571,17.4218361 10.9232286,17.4436066 11.3019143,17.4912295 L12.5427143,17.6490656 L12.6676,16.3809344 C13.4343714,8.64152459 19.7484857,2.80567213 27.3571143,2.80567213 C30.6605429,2.80567213 33.7786571,3.95406557 36.2951714,5.92293443 C36.8390286,5.29703279 37.4084,4.70378689 38.01,4.15272131 C35.0208,1.73483607 31.2769143,0.315672131 27.3571143,0.315672131 C18.8635429,0.315672131 11.8014571,6.43454098 10.3954857,14.9318361 L10.3364,14.9318361 C4.78368571,14.9318361 0.264971429,19.5539836 0.264971429,25.2333607 C0.264971429,30.9127377 4.78368571,35.5335246 10.3364,35.5335246 L16.8452286,35.5335246 C16.7874857,35.0178361 16.7485429,34.4967049 16.7485429,33.9633279 C16.7485429,33.6530984 16.7686857,33.3483115 16.7888286,33.0435246" id="Fill-1"></path>
                    <path d="M76.9931429,14.9576885 C75.9108,14.9576885 74.8298,15.0760656 73.7729714,15.3100984 C70.3943429,7.30808197 62.5117714,1.97022951 53.9819429,1.97022951 C43.3384571,1.97022951 34.4876857,9.63888525 32.7245143,20.2887377 L32.6506571,20.2887377 C25.6906286,20.2887377 20.0278,26.0810492 20.0278,33.2 C20.0278,40.3189508 25.6906286,46.108541 32.6506571,46.108541 L76.9931429,46.108541 C85.3873429,46.108541 92.2171143,39.1215738 92.2171143,30.5331148 C92.2171143,21.9446557 85.3873429,14.9576885 76.9931429,14.9576885 L76.9931429,14.9576885 Z M89.1554,30.5331148 C89.1554,37.4017049 83.7007143,42.9885574 76.9931429,42.9885574 L32.6506571,42.9885574 C27.3786,42.9885574 23.0895143,38.5977213 23.0895143,33.2 C23.0895143,27.800918 27.3786,23.4087213 32.6506571,23.4087213 C33.0024857,23.4087213 33.3865429,23.4372951 33.8592286,23.4958033 L35.4156,23.694459 L35.5713714,22.1052131 C36.5328571,12.4050984 44.4476571,5.09021311 53.9819429,5.09021311 C61.7826,5.09021311 68.7829143,10.1559344 71.4028286,17.6966885 L71.8983429,19.1199344 L73.3096857,18.6613934 C74.5075143,18.2749672 75.7469714,18.0790328 76.9931429,18.0790328 C83.7007143,18.0790328 89.1554,23.6658852 89.1554,30.5331148 L89.1554,30.5331148 Z" id="Fill-2"></path>
                    <path d="M32.8641714,54.6997213 C34.1533143,57.0835902 35.4424571,59.4688197 36.7329429,61.8540492 C37.6299714,63.5140492 40.1357429,62.0322951 39.2373714,60.3695738 C37.9482286,57.9857049 36.6590857,55.6004754 35.3686,53.2152459 C34.4715714,51.5566066 31.9658,53.0383607 32.8641714,54.6997213" id="Fill-3"></path>
                    <path d="M76.9421143,54.6997213 C78.2312571,57.0835902 79.5217429,59.4688197 80.8108857,61.8540492 C81.7079143,63.5140492 84.2150286,62.0322951 83.3166571,60.3695738 C82.0261714,57.9857049 80.7370286,55.6004754 79.4478857,53.2152459 C78.5495143,51.5566066 76.0437429,53.0383607 76.9421143,54.6997213" id="Fill-4"></path>
                    <path d="M73.7044857,62.5547869 C74.9936286,64.9400164 76.2827714,67.3252459 77.5732571,69.7104754 C78.4702857,71.3691148 80.9760571,69.8873607 80.0776857,68.226 C78.7885429,65.8407705 77.4994,63.4569016 76.2089143,61.0716721 C75.3118857,59.4116721 72.8061143,60.8934262 73.7044857,62.5547869" id="Fill-5"></path>
                    <path d="M10.9353143,45.1819344 C12.2258,47.5671639 13.5149429,49.9523934 14.8040857,52.337623 C15.7011143,53.9962623 18.2082286,52.5145082 17.3098571,50.8531475 C16.0207143,48.467918 14.7302286,46.0840492 13.4410857,43.6988197 C12.5440571,42.0388197 10.0369429,43.5205738 10.9353143,45.1819344" id="Fill-6"></path>
                    <path d="M22.7470857,53.6329672 C24.0362286,56.0181967 25.3253714,58.4020656 26.6158571,60.7872951 C27.5128857,62.4472951 30.0186571,60.965541 29.1202857,59.3041803 C27.8311429,56.9189508 26.542,54.5337213 25.2515143,52.1484918 C24.3544857,50.4884918 21.8487143,51.9716066 22.7470857,53.6329672" id="Fill-7"></path>
                    <path d="M19.3684571,63.1493934 C20.6576,65.534623 21.9467429,67.9198525 23.2372286,70.305082 C24.1342571,71.9637213 26.6413714,70.4819672 25.7416571,68.8206066 C24.4525143,66.435377 23.1633714,64.0501475 21.8742286,61.6662787 C20.9758571,60.0062787 18.4700857,61.4880328 19.3684571,63.1493934" id="Fill-8"></path>
                    <path d="M32.8641714,64.7903443 C34.1533143,67.1742131 35.4424571,69.5594426 36.7329429,71.9446721 C37.6299714,73.6046721 40.1357429,72.122918 39.2373714,70.4601967 C37.9482286,68.0763279 36.6590857,65.6910984 35.3686,63.3058689 C34.4715714,61.6458689 31.9658,63.1289836 32.8641714,64.7903443" id="Fill-9"></path>
                    <polyline id="Fill-10" points="60.8560286 45.9629508 60.5471714 46.108541 60.9245143 46.108541 60.8560286 45.9629508"></polyline>
                    <polyline id="Fill-11" points="46.8580857 45.8309672 46.4256857 46.108541 47.0326571 46.108541 46.8580857 45.8309672"></polyline>
                    <path d="M66.9727429,64.6950984 L62.2996,64.6950984 C61.6805429,64.6950984 61.1058,65.0066885 60.7620286,65.530541 C60.4196,66.0530328 60.3551429,66.7115902 60.5941714,67.2912295 L64.9812857,77.9233934 L47.1172571,58.728623 L51.5889714,58.728623 C52.2630857,58.728623 52.8848286,58.3558033 53.2084571,57.7571148 C53.5334286,57.1570656 53.5106,56.4277541 53.1480286,55.8494754 L48.7313714,48.8135246 L45.9798571,48.8135246 L50.7268571,56.3760492 L46.0228286,56.3760492 C45.2842571,56.3760492 44.6168571,56.8209836 44.3254571,57.5067541 C44.0327143,58.1938852 44.1710286,58.9898689 44.6772857,59.5341311 L65.0726,81.4488525 C65.4378571,81.842082 65.9199429,82.0448197 66.4114286,82.0448197 C66.7578857,82.0448197 67.1083714,81.9441311 67.4239429,81.7359508 C68.1853429,81.2352295 68.4740571,80.2922951 68.1235714,79.4418852 L63.0099714,67.0476721 L67.7166857,67.0476721 C68.3532,67.0476721 68.9373429,66.7211148 69.2784286,66.1768525 C69.6181714,65.6325902 69.6611429,64.9590656 69.3898857,64.3780656 L62.1774,48.8135246 L59.6138857,48.8135246 L66.9727429,64.6950984" id="Fill-12"></path>
                </g>
            </g>
        </g>
    </g>
</svg>