<?xml version="1.0" encoding="UTF-8" standalone="no"?>
<svg width="94px" height="47px" viewBox="0 0 94 47" version="1.1" xmlns="http://www.w3.org/2000/svg" xmlns:xlink="http://www.w3.org/1999/xlink">
    <!-- Generator: Sketch 47.1 (45422) - http://www.bohemiancoding.com/sketch -->
    <title>weather-icon-04d</title>
    <desc>Created with Sketch.</desc>
    <defs></defs>
    <g id="Page-1" stroke="none" stroke-width="1" fill="none" fill-rule="evenodd">
        <g id="weather-icon-04d" transform="translate(-3.000000, -27.000000)" fill="#4A4A4A">
            <g transform="translate(3.000000, 27.000000)">
                <g>
                    <path d="M17.0723369,33.4549363 L10.4055433,33.4549363 C6.05950659,33.4549363 2.52417574,29.8739871 2.52417574,25.4714735 C2.52417574,21.0674715 6.05950659,17.4850339 10.4055433,17.4850339 C10.6950811,17.4850339 11.0128303,17.5088474 11.4033351,17.5564743 L12.6862103,17.7172151 L12.8139039,16.4223582 C13.6067921,8.5103357 20.1310439,2.54506367 27.993109,2.54506367 C31.4066854,2.54506367 34.6287215,3.71936497 37.2301074,5.73160245 C37.7913653,5.09161568 38.3793497,4.48586076 39,3.92177939 C35.9115967,1.45113279 32.0436686,0 27.993109,0 C19.2164014,0 11.9200487,6.25401025 10.4679053,14.9414586 L10.4055433,14.9414586 C4.66824031,14.9414586 0,19.6654539 0,25.4714735 C0,31.2760046 4.66824031,36 10.4055433,36 L17.1317292,36 C17.0723369,35.4731272 17.0307622,34.9388126 17.0307622,34.3940797 C17.0307622,34.077063 17.0515495,33.7659997 17.0723369,33.4549363" id="Fill-1"></path>
                    <path d="M78.3936861,15.2409698 C77.2830527,15.2409698 76.1753653,15.3612073 75.0927187,15.6001979 C71.6297225,7.44186047 63.5489072,2 54.805247,2 C43.8948207,2 34.821211,9.81840673 33.015327,20.6768926 L32.9387316,20.6768926 C25.803575,20.6768926 20,26.5818902 20,33.8391885 C20,41.0964869 25.803575,47 32.9387316,47 L78.3936861,47 C86.9988853,47 94,39.8762989 94,31.1212271 C94,22.364671 86.9988853,15.2409698 78.3936861,15.2409698 L78.3936861,15.2409698 Z M90.8610613,31.1212271 C90.8610613,38.1232063 85.2681237,43.8189015 78.3936861,43.8189015 L32.9387316,43.8189015 C27.5343366,43.8189015 23.1374657,39.3433944 23.1374657,33.8391885 C23.1374657,28.3349827 27.5343366,23.8579911 32.9387316,23.8579911 C33.2981408,23.8579911 33.6929018,23.886195 34.178988,23.9470559 L35.7727617,24.1474518 L35.9333174,22.5279565 C36.9187468,12.6387927 45.0319678,5.18109847 54.805247,5.18109847 C62.800629,5.18109847 69.9770293,10.346858 72.6637605,18.0331519 L73.1704686,19.4849085 L74.6169433,19.0173182 C75.8454158,18.6224641 77.115132,18.4235527 78.3936861,18.4235527 C85.2681237,18.4235527 90.8610613,24.1192479 90.8610613,31.1212271 L90.8610613,31.1212271 Z" id="Fill-2"></path>
                </g>
            </g>
        </g>
    </g>
</svg>