<?xml version="1.0" encoding="UTF-8" standalone="no"?>
<svg width="86px" height="69px" viewBox="0 0 86 69" version="1.1" xmlns="http://www.w3.org/2000/svg" xmlns:xlink="http://www.w3.org/1999/xlink">
    <!-- Generator: Sketch 47.1 (45422) - http://www.bohemiancoding.com/sketch -->
    <title>weather-icon-11d</title>
    <desc>Created with Sketch.</desc>
    <defs></defs>
    <g id="Page-1" stroke="none" stroke-width="1" fill="none" fill-rule="evenodd">
        <g id="weather-icon-11d" transform="translate(-4.000000, -9.000000)">
            <g>
                <g>
                    <rect id="Rectangle" x="0" y="0" width="100" height="100"></rect>
                    <path d="M19.6136106,36.4261254 L13.612852,36.4261254 C9.70143143,36.4261254 6.51809457,33.5180639 6.51809457,29.9436893 C6.51809457,26.3681854 9.70143143,23.4601239 13.612852,23.4601239 C13.8738631,23.4601239 14.1586026,23.4781934 14.5107803,23.5177205 L15.6647243,23.6487244 L15.780868,22.5961756 C16.4939654,16.1724654 22.3660917,11.3287079 29.4421163,11.3287079 C32.5143049,11.3287079 35.4141511,12.2818744 37.7545094,13.9160356 C38.2602966,13.3965372 38.789812,12.9041431 39.3493,12.4467587 C36.569344,10.4399139 33.0875303,9.26200787 29.4421163,9.26200787 C21.5430949,9.26200787 14.9753551,14.340669 13.6678017,21.3934239 L13.612852,21.3934239 C8.44882771,21.3934239 4.24642343,25.2298064 4.24642343,29.9436893 C4.24642343,34.6575723 8.44882771,38.4928254 13.612852,38.4928254 L19.6660626,38.4928254 C19.6123617,38.0648039 19.5761449,37.6322651 19.5761449,37.1895621 C19.5761449,36.9320716 19.5948777,36.6790985 19.6136106,36.4261254" id="Fill-1" fill="#4A4A4A"></path>
                    <path d="M75.6036229,21.4148815 C74.597044,21.4148815 73.591714,21.5131344 72.6088634,21.7073816 C69.4667389,15.065708 62.1359474,10.6352905 54.2032069,10.6352905 C44.3047651,10.6352905 36.0735477,17.0002748 34.4337983,25.8396523 L34.3651111,25.8396523 C27.8922846,25.8396523 22.625854,30.6472708 22.625854,36.556 C22.625854,42.4647292 27.8922846,47.270089 34.3651111,47.270089 L75.6036229,47.270089 C83.4102289,47.270089 89.7619163,41.4709062 89.7619163,34.3424852 C89.7619163,27.2140643 83.4102289,21.4148815 75.6036229,21.4148815 L75.6036229,21.4148815 Z M86.914522,34.3424852 C86.914522,40.0434151 81.8416643,44.6805026 75.6036229,44.6805026 L34.3651111,44.6805026 C29.462098,44.6805026 25.4732483,41.0361087 25.4732483,36.556 C25.4732483,32.074762 29.462098,28.4292387 34.3651111,28.4292387 C34.6923117,28.4292387 35.0494849,28.4529549 35.4890826,28.5015167 L36.936508,28.666401 L37.0813754,27.3473269 C37.9755571,19.2962316 45.3363211,13.2248769 54.2032069,13.2248769 C61.457818,13.2248769 67.9681103,17.4294256 70.4046306,23.6882515 L70.8654589,24.8695456 L72.1780077,24.4889566 C73.2919883,24.1682228 74.4446834,24.0055972 75.6036229,24.0055972 C81.8416643,24.0055972 86.914522,28.6426848 86.914522,34.3424852 L86.914522,34.3424852 Z" id="Fill-2" fill="#4A4A4A"></path>
                    <path d="M34.5636794,54.4007687 C35.7625823,56.3793798 36.9614851,58.3591203 38.1616369,60.3388608 C38.9958734,61.7166608 41.3262409,60.4868049 40.4907554,59.1067462 C39.2918526,57.1281351 38.0929497,55.1483946 36.892798,53.1686541 C36.0585614,51.7919834 33.728194,53.0218393 34.5636794,54.4007687" id="Fill-3" fill="#4A4A4A"></path>
                    <path d="M75.5561663,54.4007687 C76.7550691,56.3793798 77.9552209,58.3591203 79.1541237,60.3388608 C79.9883603,61.7166608 82.3199766,60.4868049 81.4844911,59.1067462 C80.2843394,57.1281351 79.0854366,55.1483946 77.8865337,53.1686541 C77.0510483,51.7919834 74.7206809,53.0218393 75.5561663,54.4007687" id="Fill-4" fill="#4A4A4A"></path>
                    <path d="M72.5451717,60.9204731 C73.7440746,62.9002136 74.9429774,64.8799541 76.1431291,66.8596946 C76.9773657,68.2363652 79.3077331,67.0065093 78.4722477,65.62758 C77.2733449,63.6478395 76.074442,61.6692284 74.8742903,59.6894879 C74.0400537,58.3116879 71.7096863,59.5415438 72.5451717,60.9204731" id="Fill-5" fill="#4A4A4A"></path>
                    <path d="M14.1698423,46.5010056 C15.369994,48.4807461 16.5688969,50.4604866 17.7677997,52.440227 C18.6020363,53.8168977 20.9336526,52.5870418 20.0981671,51.2081125 C18.8992643,49.228372 17.6991126,47.2497608 16.5002097,45.2700203 C15.6659731,43.8922203 13.3343569,45.1220762 14.1698423,46.5010056" id="Fill-6" fill="#4A4A4A"></path>
                    <path d="M25.1547897,53.5153628 C26.3536926,55.4951033 27.5525954,57.4737144 28.7527471,59.4534549 C29.5869837,60.8312549 31.9173511,59.601399 31.0818657,58.2224697 C29.8829629,56.2427292 28.68406,54.2629887 27.4839083,52.2832482 C26.6496717,50.9054482 24.3193043,52.1364334 25.1547897,53.5153628" id="Fill-7" fill="#4A4A4A"></path>
                    <path d="M22.0126651,61.4139966 C23.211568,63.393737 24.4104709,65.3734775 25.6106226,67.353218 C26.4448591,68.7298887 28.7764754,67.5000328 27.9397411,66.1211034 C26.7408383,64.141363 25.5419354,62.1616225 24.3430326,60.1830113 C23.5075471,58.8052113 21.1771797,60.0350672 22.0126651,61.4139966" id="Fill-8" fill="#4A4A4A"></path>
                    <path d="M34.5636794,62.7759857 C35.7625823,64.7545969 36.9614851,66.7343374 38.1616369,68.7140779 C38.9958734,70.0918779 41.3262409,68.862022 40.4907554,67.4819633 C39.2918526,65.5033521 38.0929497,63.5236116 36.892798,61.5438711 C36.0585614,60.1660711 33.728194,61.3970564 34.5636794,62.7759857" id="Fill-9" fill="#4A4A4A"></path>
                    <polyline id="Fill-10" fill="#4A4A4A" points="60.5961066 47.1492492 60.3088694 47.270089 60.6597983 47.270089 60.5961066 47.1492492"></polyline>
                    <polyline id="Fill-11" fill="#4A4A4A" points="47.5780197 47.0397028 47.1758877 47.270089 47.7403711 47.270089 47.5780197 47.0397028"></polyline>
                    <path d="M66.2846509,62.6969316 L61.938628,62.6969316 C61.3629049,62.6969316 60.828394,62.9555515 60.5086866,63.390349 C60.190228,63.8240172 60.1302829,64.3706198 60.3525794,64.8517205 L64.4325957,73.6764166 L47.8190491,57.744757 L51.9777434,57.744757 C52.6046697,57.744757 53.1828906,57.4353167 53.4838651,56.9384052 C53.7860886,56.4403644 53.764858,55.8350359 53.4276666,55.3550646 L49.3201754,49.5152254 L46.7612671,49.5152254 L51.1759771,55.7921208 L46.8012306,55.7921208 C46.1143591,55.7921208 45.4936771,56.1614164 45.2226751,56.7306059 C44.9504243,57.3009248 45.0790566,57.9615911 45.5498757,58.4133289 L64.517518,76.6025475 C64.8572071,76.928928 65.3055469,77.0972003 65.7626286,77.0972003 C66.0848337,77.0972003 66.4107854,77.0136289 66.7042669,76.8408392 C67.4123689,76.4252405 67.6808731,75.6426049 67.3549214,74.9367648 L62.5992734,64.6495679 L66.9765177,64.6495679 C67.568476,64.6495679 68.1117289,64.3785252 68.4289386,63.9267875 C68.7448994,63.4750498 68.7848629,62.9160244 68.5325937,62.4337944 L61.824982,49.5152254 L59.4409137,49.5152254 L66.2846509,62.6969316" id="Fill-12" fill="#4A4A4A"></path>
                </g>
            </g>
        </g>
    </g>
</svg>