<?xml version="1.0" encoding="UTF-8" standalone="no"?>
<svg width="74px" height="45px" viewBox="0 0 74 45" version="1.1" xmlns="http://www.w3.org/2000/svg" xmlns:xlink="http://www.w3.org/1999/xlink">
    <!-- Generator: Sketch 47.1 (45422) - http://www.bohemiancoding.com/sketch -->
    <title>weather-icon-03d</title>
    <desc>Created with Sketch.</desc>
    <defs></defs>
    <g id="Page-1" stroke="none" stroke-width="1" fill="none" fill-rule="evenodd">
        <g id="weather-icon-03d" transform="translate(-13.000000, -28.000000)">
            <g>
                <g>
                    <rect id="Rectangle" x="0" y="0" width="100" height="100"></rect>
                    <path d="M71.3936861,41.2409698 C70.2830527,41.2409698 69.1753653,41.3612073 68.0927187,41.6001979 C64.6297225,33.4418605 56.5489072,28 47.805247,28 C36.8948207,28 27.821211,35.8184067 26.015327,46.6768926 L25.9387316,46.6768926 C18.803575,46.6768926 13,52.5818902 13,59.8391885 C13,67.0964869 18.803575,73 25.9387316,73 L71.3936861,73 C79.9988853,73 87,65.8762989 87,57.1212271 C87,48.364671 79.9988853,41.2409698 71.3936861,41.2409698 L71.3936861,41.2409698 Z M83.8610613,57.1212271 C83.8610613,64.1232063 78.2681237,69.8189015 71.3936861,69.8189015 L25.9387316,69.8189015 C20.5343366,69.8189015 16.1374657,65.3433944 16.1374657,59.8391885 C16.1374657,54.3349827 20.5343366,49.8579911 25.9387316,49.8579911 C26.2981408,49.8579911 26.6929018,49.886195 27.178988,49.9470559 L28.7727617,50.1474518 L28.9333174,48.5279565 C29.9187468,38.6387927 38.0319678,31.1810985 47.805247,31.1810985 C55.800629,31.1810985 62.9770293,36.346858 65.6637605,44.0331519 L66.1704686,45.4849085 L67.6169433,45.0173182 C68.8454158,44.6224641 70.115132,44.4235527 71.3936861,44.4235527 C78.2681237,44.4235527 83.8610613,50.1192479 83.8610613,57.1212271 L83.8610613,57.1212271 Z" id="Fill-2" fill="#4A4A4A"></path>
                </g>
            </g>
        </g>
    </g>
</svg>