<?xml version="1.0" encoding="UTF-8" standalone="no"?>
<svg width="97px" height="67px" viewBox="0 0 97 67" version="1.1" xmlns="http://www.w3.org/2000/svg" xmlns:xlink="http://www.w3.org/1999/xlink">
    <!-- Generator: Sketch 47.1 (45422) - http://www.bohemiancoding.com/sketch -->
    <title>weather-icon-02n</title>
    <desc>Created with Sketch.</desc>
    <defs></defs>
    <g id="Page-1" stroke="none" stroke-width="1" fill="none" fill-rule="evenodd">
        <g id="weather-icon-02n" transform="translate(-2.000000, -17.000000)">
            <g>
                <g>
                    <rect id="Rectangle" x="0" y="0" width="100" height="100"></rect>
                    <path d="M30.1540164,79.0894286 C27.5417457,79.2011429 24.8693865,79.0117143 22.1242884,78.4272381 C16.8175206,77.2987619 12.5338393,74.2679048 8.83206831,70.3125714 C8.28652751,69.7297143 7.76786844,69.1209524 7.17647059,68.4539048 C19.8345984,69.8187619 30.3943707,65.9006667 37.9765971,55.44 C45.5145478,45.0440952 46.3383934,33.5958095 41.5740038,21.6197143 C41.6419987,21.6326667 41.7242252,21.6310476 41.7890576,21.6634286 C49.1388362,25.4325714 54.6100569,30.9745714 57.2934851,38.985619 C58.1568627,38.7281905 59.0961417,38.5015238 60.0464896,38.3655238 C59.9531942,38.0805714 59.8741303,37.7972381 59.7745098,37.5122857 C56.1723593,27.2588571 48.5585073,20.9575238 38.8099304,17.1462857 C38.1568627,16.8920952 37.5354206,16.9924762 37.0752688,17.5672381 C36.615117,18.1371429 36.6277672,18.7620952 37.0056926,19.3838095 C37.1148008,19.5619048 37.2207464,19.741619 37.3251107,19.9213333 C40.6884883,25.6802857 42.344086,31.9022857 41.5075901,38.5857143 C40.0765338,50.0113333 34.2827324,58.4044762 24.0629349,63.3247619 C17.7378242,66.3701905 11.0806452,66.4867619 4.36021505,64.7770476 C3.4082859,64.5341905 2.74256799,64.6815238 2.34408602,65.3032381 C1.94244149,65.9314286 1.98671727,66.5320952 2.64452878,67.338381 C4.12934851,69.1646667 5.5540797,71.0573333 7.18121442,72.7427619 C14.0028463,79.8082857 22.2333966,82.9864762 31.9582543,81.9502857 C32.1195446,81.9211429 32.2824162,81.8968571 32.4452878,81.8693333 C31.6325111,81.1019048 30.8371284,80.192 30.1540164,79.0894286" id="Fill-1" fill="#4A4A4A"></path>
                    <path d="M84.1941809,54.8247619 C83.2058824,54.8247619 82.2207464,54.9332381 81.2577483,55.1485714 C78.1790006,47.7770476 70.9936749,42.861619 63.2185326,42.861619 C53.5158128,42.861619 45.4481341,49.9255238 43.841556,59.7353333 L43.773561,59.7353333 C37.429475,59.7353333 32.2681847,65.0700952 32.2681847,71.6272381 C32.2681847,78.184381 37.429475,83.5175238 43.773561,83.5175238 L84.1941809,83.5175238 C91.8459836,83.5175238 98.0698925,77.0818095 98.0698925,69.1711429 C98.0698925,61.2604762 91.8459836,54.8247619 84.1941809,54.8247619 L84.1941809,54.8247619 Z M95.2789374,69.1711429 C95.2789374,75.4967619 90.3074004,80.6437143 84.1941809,80.6437143 L43.773561,80.6437143 C38.9680582,80.6437143 35.0591398,76.5993333 35.0591398,71.6272381 C35.0591398,66.6535238 38.9680582,62.6091429 43.773561,62.6091429 C44.0945604,62.6091429 44.4440228,62.6350476 44.8757116,62.6884762 L46.2941176,62.8714286 L46.4364326,61.4078095 C47.3124605,52.4722857 54.5262492,45.7354286 63.2185326,45.7354286 C70.327957,45.7354286 76.7099937,50.4015238 79.097723,57.3472381 L79.5499684,58.6570476 L80.8355471,58.2360952 C81.9266287,57.8782857 83.0572423,57.6985714 84.1941809,57.6985714 C90.3074004,57.6985714 95.2789374,62.8439048 95.2789374,69.1711429 L95.2789374,69.1711429 Z" id="Fill-2" fill="#4A4A4A"></path>
                </g>
            </g>
        </g>
    </g>
</svg>