<?xml version="1.0" encoding="UTF-8" standalone="no"?>
<svg width="79px" height="78px" viewBox="0 0 79 78" version="1.1" xmlns="http://www.w3.org/2000/svg" xmlns:xlink="http://www.w3.org/1999/xlink">
    <!-- Generator: Sketch 47.1 (45422) - http://www.bohemiancoding.com/sketch -->
    <title>weather-icon-13n</title>
    <desc>Created with Sketch.</desc>
    <defs></defs>
    <g id="Page-1" stroke="none" stroke-width="1" fill="none" fill-rule="evenodd">
        <g id="weather-icon-13n" transform="translate(-10.000000, -12.000000)" fill="#4A4A4A">
            <g transform="translate(10.000000, 12.000000)">
                <g>
                    <path d="M62.3927273,14.3186852 C61.2203636,14.3186852 60.0494545,14.445963 58.9047273,14.6975926 C55.2450909,6.09390741 46.7069091,0.354703704 37.4676364,0.354703704 C25.9374545,0.354703704 16.3505455,8.59996296 14.4421818,20.052037 C14.4145455,20.0505741 14.3883636,20.0505741 14.3607273,20.0505741 C6.82181818,20.0505741 0.689454545,26.2784074 0.689454545,33.9326296 C0.689454545,41.5868519 6.82181818,47.8132222 14.3607273,47.8132222 L62.3927273,47.8132222 C71.4850909,47.8132222 78.8829091,40.2994444 78.8829091,31.0652222 C78.8829091,21.832463 71.4850909,14.3186852 62.3927273,14.3186852 L62.3927273,14.3186852 Z M75.5665455,31.0652222 C75.5665455,38.4502593 69.6567273,44.4571852 62.3927273,44.4571852 L14.3607273,44.4571852 C8.65018182,44.4571852 4.00581818,39.7362037 4.00581818,33.9326296 C4.00581818,28.1275926 8.65018182,23.4051481 14.3607273,23.4051481 C14.7418182,23.4051481 15.1578182,23.4358704 15.6712727,23.5002407 L17.3570909,23.7123704 L17.5258182,22.0036296 C18.5672727,11.5741667 27.1389091,3.70927778 37.4676364,3.70927778 C45.9156364,3.70927778 53.4996364,9.15588889 56.3374545,17.2636296 L56.8741818,18.7938889 L58.4014545,18.3008704 C59.6989091,17.8853889 61.0414545,17.6747222 62.3927273,17.6747222 C69.6567273,17.6747222 75.5665455,23.6816481 75.5665455,31.0652222 L75.5665455,31.0652222 Z" id="Fill-1"></path>
                    <path d="M46.1687273,57.4117222 C46.1687273,59.157037 44.7607273,60.5731852 43.0254545,60.5731852 C41.2901818,60.5731852 39.8821818,59.157037 39.8821818,57.4117222 C39.8821818,55.6664074 41.2901818,54.2502593 43.0254545,54.2502593 C44.7607273,54.2502593 46.1687273,55.6664074 46.1687273,57.4117222" id="Fill-2"></path>
                    <path d="M52.4538182,72.5841111 C52.4538182,74.3308889 51.0472727,75.7455741 49.312,75.7455741 C47.5752727,75.7455741 46.1687273,74.3308889 46.1687273,72.5841111 C46.1687273,70.8387963 47.5752727,69.4241111 49.312,69.4241111 C51.0472727,69.4241111 52.4538182,70.8387963 52.4538182,72.5841111" id="Fill-3"></path>
                    <path d="M67.9010909,57.4117222 C67.9010909,59.157037 66.4945455,60.5731852 64.7578182,60.5731852 C63.0225455,60.5731852 61.616,59.157037 61.616,57.4117222 C61.616,55.6664074 63.0225455,54.2502593 64.7578182,54.2502593 C66.4945455,54.2502593 67.9010909,55.6664074 67.9010909,57.4117222" id="Fill-4"></path>
                    <path d="M72.9294545,72.5841111 C72.9294545,74.3308889 71.5229091,75.7455741 69.7861818,75.7455741 C68.0509091,75.7455741 66.6443636,74.3308889 66.6443636,72.5841111 C66.6443636,70.8387963 68.0509091,69.4241111 69.7861818,69.4241111 C71.5229091,69.4241111 72.9294545,70.8387963 72.9294545,72.5841111" id="Fill-5"></path>
                    <path d="M26.4523636,58.7825185 C26.4523636,60.5278333 25.0443636,61.9439815 23.3090909,61.9439815 C21.5738182,61.9439815 20.1658182,60.5278333 20.1658182,58.7825185 C20.1658182,57.0372037 21.5738182,55.6210556 23.3090909,55.6210556 C25.0443636,55.6210556 26.4523636,57.0372037 26.4523636,58.7825185" id="Fill-6"></path>
                    <path d="M32.7374545,73.9549074 C32.7374545,75.7002222 31.3309091,77.1163704 29.5941818,77.1163704 C27.8589091,77.1163704 26.4523636,75.7002222 26.4523636,73.9549074 C26.4523636,72.2095926 27.8589091,70.7949074 29.5941818,70.7949074 C31.3309091,70.7949074 32.7374545,72.2095926 32.7374545,73.9549074" id="Fill-7"></path>
                </g>
            </g>
        </g>
    </g>
</svg>