<?xml version="1.0" encoding="UTF-8" standalone="no"?>
<svg width="79px" height="80px" viewBox="0 0 79 80" version="1.1" xmlns="http://www.w3.org/2000/svg" xmlns:xlink="http://www.w3.org/1999/xlink">
    <!-- Generator: Sketch 47.1 (45422) - http://www.bohemiancoding.com/sketch -->
    <title>weather-icon-50d</title>
    <desc>Created with Sketch.</desc>
    <defs></defs>
    <g id="Page-1" stroke="none" stroke-width="1" fill="none" fill-rule="evenodd">
        <g id="weather-icon-50n" transform="translate(-11.000000, -10.000000)">
            <g id="weather-icon-50d">
                <g>
                    <rect id="Rectangle" x="0" y="0" width="100" height="100"></rect>
                    <path d="M15.5920147,66.8071429 L87.3504997,66.8071429 C88.3829209,66.8071429 89.2276291,66.0146526 89.2276291,65.0444228 C89.2276291,64.0758236 88.3829209,63.2833333 87.3504997,63.2833333 L15.5920147,63.2833333 C14.5595935,63.2833333 13.7148853,64.0758236 13.7148853,65.0444228 C13.7148853,66.0146526 14.5595935,66.8071429 15.5920147,66.8071429" id="Fill-1" fill="#4A4A4A"></path>
                    <path d="M32.3054185,78.1921429 L87.3504997,78.1921429 C88.3829209,78.1921429 89.2276291,77.3996526 89.2276291,76.4294228 C89.2276291,75.4608236 88.3829209,74.6683333 87.3504997,74.6683333 L32.3054185,74.6683333 C31.2729974,74.6683333 30.4265511,75.4608236 30.4265511,76.4294228 C30.4265511,77.3996526 31.2729974,78.1921429 32.3054185,78.1921429" id="Fill-2" fill="#4A4A4A"></path>
                    <path d="M72.7488664,23.68 C71.5756606,23.68 70.4059309,23.8016667 69.2622724,24.04 C65.6053463,15.8433333 57.0713599,10.375 47.8386642,10.375 C36.3169136,10.375 26.7348633,18.2316667 24.8281865,29.1416667 L24.7464966,29.1416667 C17.2136459,29.1416667 11.083428,35.075 11.083428,42.3683333 C11.083428,49.6616667 17.2136459,55.5933333 24.7464966,55.5933333 L72.7488664,55.5933333 C81.8355631,55.5933333 89.2276291,48.435 89.2276291,39.6366667 C89.2276291,30.8383333 81.8355631,23.68 72.7488664,23.68 L72.7488664,23.68 Z M85.9131053,39.6366667 C85.9131053,46.6733333 80.0088381,52.3966667 72.7488664,52.3966667 L24.7464966,52.3966667 C19.0403709,52.3966667 14.3979518,47.8983333 14.3979518,42.3683333 C14.3979518,36.8383333 19.0403709,32.3383333 24.7464966,32.3383333 C25.1271367,32.3383333 25.5442766,32.3666667 26.057011,32.4283333 L27.7412132,32.63 L27.9098072,31.0016667 C28.9491807,21.065 37.5179288,13.5716667 47.8386642,13.5716667 C56.2822703,13.5716667 63.8603112,18.7616667 66.6968622,26.4866667 L67.2339298,27.945 L68.7599665,27.475 C70.0565762,27.0783333 71.3983761,26.8766667 72.7488664,26.8766667 C80.0088381,26.8766667 85.9131053,32.6 85.9131053,39.6366667 L85.9131053,39.6366667 Z" id="Fill-3" fill="#4A4A4A"></path>
                    <path d="M50.4527407,89.1204762 L87.3504997,89.1204762 C88.3829209,89.1204762 89.2276291,88.3276191 89.2276291,87.3585715 C89.2276291,86.3895238 88.3829209,85.5966667 87.3504997,85.5966667 L50.4527407,85.5966667 C49.4185815,85.5966667 48.5738732,86.3895238 48.5738732,87.3585715 C48.5738732,88.3276191 49.4185815,89.1204762 50.4527407,89.1204762" id="Fill-4" fill="#4A4A4A"></path>
                </g>
            </g>
        </g>
    </g>
</svg>