<?xml version="1.0" encoding="UTF-8" standalone="no"?>
<svg width="98px" height="72px" viewBox="0 0 98 72" version="1.1" xmlns="http://www.w3.org/2000/svg" xmlns:xlink="http://www.w3.org/1999/xlink">
    <!-- Generator: Sketch 47.1 (45422) - http://www.bohemiancoding.com/sketch -->
    <title>weather-icon-02d</title>
    <desc>Created with Sketch.</desc>
    <defs></defs>
    <g id="Page-1" stroke="none" stroke-width="1" fill="none" fill-rule="evenodd">
        <g id="weather-icon-02d" transform="translate(-1.000000, -14.000000)">
            <g>
                <g>
                    <rect id="Rectangle" x="0" y="0" width="100" height="100"></rect>
                    <path d="M83.2352339,55.4470233 C82.180676,55.4470233 81.1278081,55.5607674 80.0986002,55.7865581 C76.8064869,48.0587442 69.1271424,42.902907 60.8174292,42.902907 C50.4476101,42.902907 41.8252475,50.3098605 40.108211,60.5960698 L40.0355411,60.5960698 C33.2552748,60.5960698 27.739126,66.189907 27.739126,73.067186 C27.739126,79.9410698 33.2552748,85.5332093 40.0355411,85.5332093 L83.2352339,85.5332093 C91.4131273,85.5332093 98.0666439,78.7849535 98.0666439,70.4901163 C98.0666439,62.1952791 91.4131273,55.4470233 83.2352339,55.4470233 L83.2352339,55.4470233 Z M95.0837999,70.4901163 C95.0837999,77.1229302 89.7687607,82.5198372 83.2352339,82.5198372 L40.0355411,82.5198372 C34.8996415,82.5198372 30.72197,78.2790465 30.72197,73.067186 C30.72197,67.8519302 34.8996415,63.6094419 40.0355411,63.6094419 C40.3786104,63.6094419 40.7537897,63.6366047 41.2151588,63.6943256 L42.7310857,63.8844651 L42.8831854,62.3497674 C43.8177535,52.982 51.5292079,45.9179767 60.8174292,45.9179767 C68.4156538,45.9179767 75.23648,50.8089767 77.7900649,58.092 L78.2717139,59.4671163 L79.6456811,59.0240233 C80.8134688,58.6505349 82.0201263,58.462093 83.2352339,58.462093 C89.7687607,58.462093 95.0837999,63.8573023 95.0837999,70.4901163 L95.0837999,70.4901163 Z" id="Fill-1" fill="#4A4A4A"></path>
                    <path d="M22.4156367,36.1936977 C23.0054455,36.859186 24.0295835,36.9203023 24.6920621,36.3295116 C25.3562308,35.7370233 25.4170707,34.7082326 24.8272619,34.0427442 L15.351451,23.3219302 C14.7633322,22.6564419 13.7391943,22.5953256 13.0750256,23.187814 C12.4125469,23.7786047 12.3517071,24.8073953 12.9398259,25.4745814 L22.4156367,36.1936977" id="Fill-2" fill="#4A4A4A"></path>
                    <path d="M21.283339,62.7062791 L10.8357801,72.4713023 C10.1868214,73.0790698 10.1496415,74.1078605 10.7529703,74.7614651 C11.3579891,75.4133721 12.383817,75.4507209 13.0327757,74.8429535 L23.4803346,65.0779302 C24.1292933,64.4718605 24.1664732,63.4413721 23.5631444,62.7894651 C22.9581256,62.1375581 21.9322977,62.1002093 21.283339,62.7062791" id="Fill-3" fill="#4A4A4A"></path>
                    <path d="M63.2375043,25.466093 C62.6324855,24.814186 61.6066576,24.7768372 60.9576989,25.382907 L50.51014,35.1479302 C49.8611813,35.7556977 49.8240014,36.7844884 50.4290201,37.438093 C51.0323489,38.09 52.0581769,38.1273488 52.7071355,37.5195814 L63.1546944,27.7545581 C63.8036531,27.1484884 63.840833,26.118 63.2375043,25.466093" id="Fill-4" fill="#4A4A4A"></path>
                    <path d="M38.5449642,31.7814419 C39.4288324,31.8510465 40.2079208,31.1804651 40.2772107,30.2925814 L41.3909184,16.0015581 C41.4602083,15.1136744 40.7926596,14.3293488 39.9087914,14.2597442 C39.0249232,14.1901395 38.2441448,14.8607209 38.1748549,15.7486047 L37.0628371,30.0396279 C36.9935473,30.9292093 37.6594059,31.7118372 38.5449642,31.7814419" id="Fill-5" fill="#4A4A4A"></path>
                    <path d="M18.836224,48.6189767 L18.836224,48.6189767 C18.9173438,47.7327907 18.2616251,46.9399767 17.3794469,46.8567907 L3.16995562,45.5292093 C2.2860874,45.4477209 1.496859,46.1047209 1.41573916,46.9926047 C1.33292933,47.8804884 1.988648,48.6733023 2.87082622,48.7547907 L17.0803175,50.0823721 C17.9641857,50.1655581 18.7534141,49.5068605 18.836224,48.6189767" id="Fill-6" fill="#4A4A4A"></path>
                    <path d="M24.9489416,49.1401628 C25.5353704,42.5769535 31.3269887,37.7165116 37.8605155,38.3056047 C41.1610789,38.6043953 44.0256231,40.2375581 45.9792591,42.626186 C46.6907477,41.9233488 47.4664561,41.2544651 48.3080744,40.639907 C45.8525094,37.6587907 42.2629566,35.6215814 38.132605,35.2497907 C29.9226016,34.5096047 22.6437863,40.6178372 21.9069478,48.8651395 C21.4303687,54.1958372 23.8098839,59.1224884 27.7627859,62.1494419 C28.208945,61.3786977 28.8105838,60.5366512 29.6099522,59.7115814 C26.4648686,57.3025814 24.5703824,53.3809535 24.9489416,49.1401628" id="Fill-7" fill="#4A4A4A"></path>
                </g>
            </g>
        </g>
    </g>
</svg>