<?xml version="1.0" encoding="UTF-8" standalone="no"?>
<svg width="79px" height="78px" viewBox="0 0 79 78" version="1.1" xmlns="http://www.w3.org/2000/svg" xmlns:xlink="http://www.w3.org/1999/xlink">
    <!-- Generator: Sketch 47.1 (45422) - http://www.bohemiancoding.com/sketch -->
    <title>weather-icon-13n</title>
    <desc>Created with Sketch.</desc>
    <defs></defs>
    <g id="Page-1" stroke="none" stroke-width="1" fill="none" fill-rule="evenodd">
        <g id="weather-icon-13d" transform="translate(-11.000000, -11.000000)">
            <g id="weather-icon-13n">
                <g>
                    <rect id="Rectangle" x="0" y="0" width="100" height="100"></rect>
                    <path d="M73.3927273,25.3186852 C72.2203636,25.3186852 71.0494545,25.445963 69.9047273,25.6975926 C66.2450909,17.0939074 57.7069091,11.3547037 48.4676364,11.3547037 C36.9374545,11.3547037 27.3505455,19.599963 25.4421818,31.052037 C25.4145455,31.0505741 25.3883636,31.0505741 25.3607273,31.0505741 C17.8218182,31.0505741 11.6894545,37.2784074 11.6894545,44.9326296 C11.6894545,52.5868519 17.8218182,58.8132222 25.3607273,58.8132222 L73.3927273,58.8132222 C82.4850909,58.8132222 89.8829091,51.2994444 89.8829091,42.0652222 C89.8829091,32.832463 82.4850909,25.3186852 73.3927273,25.3186852 L73.3927273,25.3186852 Z M86.5665455,42.0652222 C86.5665455,49.4502593 80.6567273,55.4571852 73.3927273,55.4571852 L25.3607273,55.4571852 C19.6501818,55.4571852 15.0058182,50.7362037 15.0058182,44.9326296 C15.0058182,39.1275926 19.6501818,34.4051481 25.3607273,34.4051481 C25.7418182,34.4051481 26.1578182,34.4358704 26.6712727,34.5002407 L28.3570909,34.7123704 L28.5258182,33.0036296 C29.5672727,22.5741667 38.1389091,14.7092778 48.4676364,14.7092778 C56.9156364,14.7092778 64.4996364,20.1558889 67.3374545,28.2636296 L67.8741818,29.7938889 L69.4014545,29.3008704 C70.6989091,28.8853889 72.0414545,28.6747222 73.3927273,28.6747222 C80.6567273,28.6747222 86.5665455,34.6816481 86.5665455,42.0652222 L86.5665455,42.0652222 Z" id="Fill-1" fill="#4A4A4A"></path>
                    <path d="M57.1687273,68.4117222 C57.1687273,70.157037 55.7607273,71.5731852 54.0254545,71.5731852 C52.2901818,71.5731852 50.8821818,70.157037 50.8821818,68.4117222 C50.8821818,66.6664074 52.2901818,65.2502593 54.0254545,65.2502593 C55.7607273,65.2502593 57.1687273,66.6664074 57.1687273,68.4117222" id="Fill-2" fill="#4A4A4A"></path>
                    <path d="M63.4538182,83.5841111 C63.4538182,85.3308889 62.0472727,86.7455741 60.312,86.7455741 C58.5752727,86.7455741 57.1687273,85.3308889 57.1687273,83.5841111 C57.1687273,81.8387963 58.5752727,80.4241111 60.312,80.4241111 C62.0472727,80.4241111 63.4538182,81.8387963 63.4538182,83.5841111" id="Fill-3" fill="#4A4A4A"></path>
                    <path d="M78.9010909,68.4117222 C78.9010909,70.157037 77.4945455,71.5731852 75.7578182,71.5731852 C74.0225455,71.5731852 72.616,70.157037 72.616,68.4117222 C72.616,66.6664074 74.0225455,65.2502593 75.7578182,65.2502593 C77.4945455,65.2502593 78.9010909,66.6664074 78.9010909,68.4117222" id="Fill-4" fill="#4A4A4A"></path>
                    <path d="M83.9294545,83.5841111 C83.9294545,85.3308889 82.5229091,86.7455741 80.7861818,86.7455741 C79.0509091,86.7455741 77.6443636,85.3308889 77.6443636,83.5841111 C77.6443636,81.8387963 79.0509091,80.4241111 80.7861818,80.4241111 C82.5229091,80.4241111 83.9294545,81.8387963 83.9294545,83.5841111" id="Fill-5" fill="#4A4A4A"></path>
                    <path d="M37.4523636,69.7825185 C37.4523636,71.5278333 36.0443636,72.9439815 34.3090909,72.9439815 C32.5738182,72.9439815 31.1658182,71.5278333 31.1658182,69.7825185 C31.1658182,68.0372037 32.5738182,66.6210556 34.3090909,66.6210556 C36.0443636,66.6210556 37.4523636,68.0372037 37.4523636,69.7825185" id="Fill-6" fill="#4A4A4A"></path>
                    <path d="M43.7374545,84.9549074 C43.7374545,86.7002222 42.3309091,88.1163704 40.5941818,88.1163704 C38.8589091,88.1163704 37.4523636,86.7002222 37.4523636,84.9549074 C37.4523636,83.2095926 38.8589091,81.7949074 40.5941818,81.7949074 C42.3309091,81.7949074 43.7374545,83.2095926 43.7374545,84.9549074" id="Fill-7" fill="#4A4A4A"></path>
                </g>
            </g>
        </g>
    </g>
</svg>