<?xml version="1.0" encoding="UTF-8" standalone="no"?>
<svg width="74px" height="45px" viewBox="0 0 74 45" version="1.1" xmlns="http://www.w3.org/2000/svg" xmlns:xlink="http://www.w3.org/1999/xlink">
    <!-- Generator: Sketch 47.1 (45422) - http://www.bohemiancoding.com/sketch -->
    <title>weather-icon-03n</title>
    <desc>Created with Sketch.</desc>
    <defs></defs>
    <g id="Page-1" stroke="none" stroke-width="1" fill="none" fill-rule="evenodd">
        <g id="weather-icon-03n" transform="translate(-13.000000, -28.000000)" fill="#4A4A4A">
            <g transform="translate(13.000000, 28.000000)" id="Fill-2">
                <g>
                    <path d="M58.3936861,13.2409698 C57.2830527,13.2409698 56.1753653,13.3612073 55.0927187,13.6001979 C51.6297225,5.44186047 43.5489072,0 34.805247,0 C23.8948207,0 14.821211,7.81840673 13.015327,18.6768926 L12.9387316,18.6768926 C5.80357498,18.6768926 0,24.5818902 0,31.8391885 C0,39.0964869 5.80357498,45 12.9387316,45 L58.3936861,45 C66.9988853,45 74,37.8762989 74,29.1212271 C74,20.364671 66.9988853,13.2409698 58.3936861,13.2409698 L58.3936861,13.2409698 Z M70.8610613,29.1212271 C70.8610613,36.1232063 65.2681237,41.8189015 58.3936861,41.8189015 L12.9387316,41.8189015 C7.53433656,41.8189015 3.13746566,37.3433944 3.13746566,31.8391885 C3.13746566,26.3349827 7.53433656,21.8579911 12.9387316,21.8579911 C13.2981408,21.8579911 13.6929018,21.886195 14.178988,21.9470559 L15.7727617,22.1474518 L15.9333174,20.5279565 C16.9187468,10.6387927 25.0319678,3.18109847 34.805247,3.18109847 C42.800629,3.18109847 49.9770293,8.34685799 52.6637605,16.0331519 L53.1704686,17.4849085 L54.6169433,17.0173182 C55.8454158,16.6224641 57.115132,16.4235527 58.3936861,16.4235527 C65.2681237,16.4235527 70.8610613,22.1192479 70.8610613,29.1212271 L70.8610613,29.1212271 Z"></path>
                </g>
            </g>
        </g>
    </g>
</svg>